<svg width="553" height="737" viewBox="0 0 553 737" fill="none" xmlns="http://www.w3.org/2000/svg">
<path d="M203.75 124.439C205.31 112.379 213.43 94.449 204.73 85.789C212.95 63.829 225.03 43.5891 233.94 21.9191C240.24 21.0591 264.471 129.589 273.581 141.539L234.531 174.969L279.141 163.839L315.15 231.249L258.601 266.599L315.57 251.779C302.35 273.339 309.96 272.699 324.94 254.139C317.99 261.409 312.52 296.549 310.4 297.389C309.08 297.909 298.011 276.559 300.201 308.919C254.001 324.519 301.681 314.149 303.561 315.839C307.951 319.769 297.96 378.679 324.46 430.739C224.58 385.739 205.34 222.999 203.73 124.419L203.75 124.439Z" fill="#307F68"/>
<path d="M504.55 85.9497C510.69 81.7197 548.441 60.5297 552.581 65.6697C527.261 124.91 518.05 189.09 508.82 252.45C482.92 260.69 463.091 233.02 441.581 225.77L486.411 270.6C425.921 306.15 379.341 285.06 482.141 311.16C486.431 316.87 449.62 434.09 438.381 446.71C414.711 419.25 377.211 428.06 361.531 459.52C348.741 327.66 388.95 165.56 504.55 85.9597V85.9497Z" fill="#307F68"/>
<path d="M179.15 587.949C192.56 585.619 192.301 562.08 197.491 550.32C213.721 513.53 251.81 466.75 287.17 446.71C371.06 399.16 458.171 443.49 435.311 411.37C433.591 408.95 391.06 389.41 382.65 383.88C359.43 368.63 333.451 353.42 316.561 330.65C242.341 230.63 316.391 71.1996 401.561 0.599609C392.871 61.3396 391.751 122.169 398.951 183.229C319.101 194.189 316.23 201.71 400.36 199.84L416.69 245.219C415.78 249.019 410.611 273.84 410.471 275.37L353.09 279.55C367.62 291.86 391.97 293.719 410.36 293.479C409.74 327.279 416.48 364.56 436.94 391.75C327.19 360 429.2 389.33 457.9 420.56C454.52 425.51 442.051 429.73 436.621 444.58C386.481 434.82 362.291 491.63 330.511 519.41C320.451 495.46 302.761 485.61 324.431 526.92C272.781 581.01 301.911 592.369 227.581 568.599L269.641 602.06C244.131 644.12 227.371 690.19 209.971 736.04C184.471 696.46 175.831 634.249 179.161 587.929L179.15 587.949Z" fill="#307F68"/>
<path d="M306.101 425.23C298.631 444.19 299.611 473.78 314.751 488.68L212.051 574.43C173.531 503.8 190.451 533.74 194.211 588.93L120.361 638.21C74.8009 585.53 85.231 566.08 101.691 649.8L3.36093 712.33C-5.84907 710.51 12.201 661.39 13.981 655.94C30.311 652.21 35.0113 629.69 43.4513 616.16C113.031 532.73 198.511 454.68 306.091 425.22L306.101 425.23Z" fill="#307F68"/>
<path d="M381.171 415.279C380.091 415.389 368.771 420.029 366.881 420.999C364.771 422.079 363.401 423.669 361.491 425.069C360.531 421.839 357.471 420.759 354.451 420.239C334.101 416.719 316.281 422.219 296.951 424.769C297.161 412.919 279.51 425.48 274.8 421.21C273.38 419.92 295.751 393.799 296.561 389.539C302.771 356.809 224.751 429.03 243.531 434.69C237.361 436.58 232.371 441.079 225.721 437.989C215.501 380.719 217.631 388.479 208.841 438.049L154.311 442.029C150.861 440.429 150.781 428.649 149.521 424.499C145.571 411.469 148.841 398.25 143.841 385.64C139.641 397.76 141.951 410.84 140.061 423.19C139.161 429.08 140.191 440.639 138.911 441.829C27.3108 448.49 -13.2191 490.27 32.4909 430.88C41.3109 419.42 54.0606 407.279 64.6306 397.279C160.141 340.739 295.591 341.789 381.151 415.299L381.171 415.279Z" fill="#307F68"/>
</svg>
