<svg width="96" height="96" viewBox="0 0 96 96" fill="none" xmlns="http://www.w3.org/2000/svg">
<path d="M48 88C70.0914 88 88 70.0914 88 48C88 25.9086 70.0914 8 48 8C25.9086 8 8 25.9086 8 48C8 70.0914 25.9086 88 48 88Z" fill="white"/>
<path d="M57.459 30.5835H39.5423C34.5948 30.5835 30.584 34.5943 30.584 39.5418V57.4585C30.584 62.406 34.5948 66.4168 39.5423 66.4168H57.459C62.4065 66.4168 66.4173 62.406 66.4173 57.4585V39.5418C66.4173 34.5943 62.4065 30.5835 57.459 30.5835Z" stroke="black" stroke-width="4" stroke-linecap="round" stroke-linejoin="round"/>
<path d="M55.666 47.3713C55.8871 48.8624 55.6324 50.3853 54.9381 51.7233C54.2439 53.0613 53.1454 54.1463 51.7989 54.8241C50.4524 55.5018 48.9265 55.7377 47.4383 55.4982C45.95 55.2587 44.5751 54.556 43.5092 53.4901C42.4433 52.4242 41.7407 51.0494 41.5012 49.5611C41.2617 48.0728 41.4976 46.5469 42.1753 45.2005C42.853 43.854 43.9381 42.7555 45.2761 42.0612C46.6141 41.367 48.137 41.1123 49.6281 41.3334C51.149 41.5589 52.5572 42.2677 53.6444 43.3549C54.7317 44.4422 55.4404 45.8503 55.666 47.3713Z" stroke="black" stroke-width="4" stroke-linecap="round" stroke-linejoin="round"/>
<path d="M58.3535 38.646H58.3707" stroke="black" stroke-width="4" stroke-linecap="round" stroke-linejoin="round"/>
</svg>
