<svg width="36" height="37" viewBox="0 0 36 37" fill="none" xmlns="http://www.w3.org/2000/svg">
<g clip-path="url(#clip0_160_3063)">
<path d="M18 36.5625C27.9411 36.5625 36 28.5036 36 18.5625C36 8.62137 27.9411 0.5625 18 0.5625C8.05887 0.5625 0 8.62137 0 18.5625C0 28.5036 8.05887 36.5625 18 36.5625Z" fill="white"/>
<path d="M25.4593 14.8014C25.3713 14.4703 25.1979 14.168 24.9564 13.925C24.7149 13.6819 24.4138 13.5065 24.0833 13.4164C22.065 13.1735 20.0329 13.0639 18.0003 13.0884C15.9676 13.0636 13.9355 13.1728 11.9173 13.4154C11.5864 13.5055 11.285 13.6809 11.0433 13.9242C10.8016 14.1674 10.6282 14.47 10.5403 14.8014C10.3159 16.046 10.2071 17.3088 10.2153 18.5734C10.2071 19.8381 10.3159 21.1008 10.5403 22.3454C10.629 22.674 10.8031 22.9732 11.045 23.2126C11.2869 23.452 11.5878 23.6231 11.9173 23.7084C13.9355 23.951 15.9676 24.0603 18.0003 24.0354C20.0329 24.0603 22.065 23.951 24.0833 23.7084C24.4125 23.6229 24.7133 23.4517 24.9549 23.2123C25.1966 22.973 25.3706 22.6738 25.4593 22.3454C25.6836 21.1008 25.7924 19.8381 25.7843 18.5734C25.7924 17.3088 25.6836 16.046 25.4593 14.8014ZM16.4073 20.8884V16.2584L20.4763 18.5734L16.4073 20.8884Z" fill="black"/>
</g>
<defs>
<clipPath id="clip0_160_3063">
<rect width="36" height="36" fill="white" transform="translate(0 0.5625)"/>
</clipPath>
</defs>
</svg>
