<svg width="36" height="37" viewBox="0 0 36 37" fill="none" xmlns="http://www.w3.org/2000/svg">
<g clip-path="url(#clip0_160_3060)">
<path d="M18 36.5625C27.9411 36.5625 36 28.5036 36 18.5625C36 8.62137 27.9411 0.5625 18 0.5625C8.05887 0.5625 0 8.62137 0 18.5625C0 28.5036 8.05887 36.5625 18 36.5625Z" fill="white"/>
<path d="M21.4133 19.4795L21.8203 16.8295H19.2733V15.1025C19.2554 14.9039 19.2825 14.7039 19.3525 14.5172C19.4226 14.3305 19.5338 14.162 19.6779 14.0243C19.822 13.8865 19.9954 13.7829 20.185 13.7214C20.3746 13.6598 20.5757 13.6417 20.7733 13.6685H21.9283V11.4085C21.2482 11.2988 20.561 11.2389 19.8723 11.2295C19.3985 11.1936 18.9227 11.2622 18.4785 11.4306C18.0343 11.599 17.6325 11.863 17.3016 12.2039C16.9707 12.5448 16.7188 12.9543 16.5638 13.4033C16.4087 13.8524 16.3542 14.3301 16.4043 14.8025V16.8295H14.0723V19.4795H16.4043V25.8965H19.2733V19.4795H21.4133Z" fill="black"/>
</g>
<defs>
<clipPath id="clip0_160_3060">
<rect width="36" height="36" fill="white" transform="translate(0 0.5625)"/>
</clipPath>
</defs>
</svg>
