<svg width="36" height="37" viewBox="0 0 36 37" fill="none" xmlns="http://www.w3.org/2000/svg">
<path d="M18 36.5625C27.9411 36.5625 36 28.5036 36 18.5625C36 8.62137 27.9411 0.5625 18 0.5625C8.05887 0.5625 0 8.62137 0 18.5625C0 28.5036 8.05887 36.5625 18 36.5625Z" fill="white"/>
<path d="M19.0895 17.5825L23.8255 12.0825H22.7035L18.5915 16.8625L15.3075 12.0825H11.5195L16.4855 19.3105L11.5195 25.0825H12.6415L16.9835 20.0355L20.4525 25.0825H24.2395L19.0895 17.5825ZM17.5525 19.3735L17.0525 18.6535L13.0525 12.9265H14.7695L18.0005 17.5485L18.5005 18.2685L22.7005 24.2755H20.9805L17.5535 19.3755L17.5525 19.3735Z" fill="black"/>
</svg>
