<svg width="68" height="66" viewBox="0 0 68 66" fill="none" xmlns="http://www.w3.org/2000/svg">
<rect x="2" width="66" height="66" rx="20" fill="#D9D9D9"/>
<path d="M28.5 43.3714V20.9L50.5 17.4429V39.9143" stroke="black" stroke-width="4" stroke-linecap="round" stroke-linejoin="round"/>
<path d="M23 48.557C26.0376 48.557 28.5 46.2353 28.5 43.3713C28.5 40.5073 26.0376 38.1855 23 38.1855C19.9624 38.1855 17.5 40.5073 17.5 43.3713C17.5 46.2353 19.9624 48.557 23 48.557Z" stroke="black" stroke-width="4" stroke-linecap="round" stroke-linejoin="round"/>
<path d="M45 45.0995C48.0376 45.0995 50.5 42.7777 50.5 39.9137C50.5 37.0498 48.0376 34.728 45 34.728C41.9624 34.728 39.5 37.0498 39.5 39.9137C39.5 42.7777 41.9624 45.0995 45 45.0995Z" stroke="black" stroke-width="4" stroke-linecap="round" stroke-linejoin="round"/>
</svg>
