<svg width="54" height="54" viewBox="0 0 54 54" fill="none" xmlns="http://www.w3.org/2000/svg">
<rect x="0.349609" y="0.47998" width="53.46" height="53.4601" rx="15" fill="white"/>
<path d="M36.3804 12.0698L20.1504 17.8499C19.4604 18.0799 18.9004 18.8399 18.9004 19.5299V34.2799C18.3304 34.1899 17.7003 34.1999 17.0303 34.3599C14.6203 34.9499 12.6602 37.1298 12.6602 39.1998C12.6602 41.2698 14.6203 42.4399 17.0303 41.8499C19.4203 41.2699 21.3504 39.1699 21.4004 37.1299V22.4199L35.1401 17.4999V30.5299C34.5701 30.4399 33.94 30.4499 33.27 30.6099C30.86 31.1999 28.9004 33.3798 28.9004 35.4498C28.9004 37.5198 30.86 38.6899 33.27 38.0999C35.68 37.5099 37.6401 35.3699 37.6401 33.2999V13.3198C37.6401 12.6298 37.0801 12.0698 36.3901 12.0698H36.3804Z" fill="black"/>
</svg>
