<svg width="55" height="54" viewBox="0 0 55 54" fill="none" xmlns="http://www.w3.org/2000/svg">
<rect x="0.710938" y="0.47998" width="53.46" height="53.4601" rx="15" fill="white"/>
<path d="M36.7397 12.0703L20.5098 17.8503C19.8198 18.0803 19.2598 18.8404 19.2598 19.5304V34.2804C18.6898 34.1904 18.0596 34.2004 17.3896 34.3604C14.9796 34.9504 13.0195 37.1303 13.0195 39.2003C13.0195 41.2703 14.9796 42.4403 17.3896 41.8503C19.7796 41.2703 21.7098 39.1704 21.7598 37.1304V22.4204L35.4995 17.5004V30.5304C34.9295 30.4404 34.2999 30.4504 33.6299 30.6104C31.2199 31.2004 29.2598 33.3803 29.2598 35.4503C29.2598 37.5203 31.2199 38.6903 33.6299 38.1003C36.0399 37.5103 37.9995 35.3704 37.9995 33.3004V13.3203C37.9995 12.6303 37.4395 12.0703 36.7495 12.0703H36.7397Z" fill="black"/>
<path d="M9.91016 27.21H46.9992" stroke="black" stroke-width="3" stroke-miterlimit="10"/>
</svg>
